<svg xmlns="http://www.w3.org/2000/svg" viewBox="0 0 600 400" fill="none">
  <rect width="600" height="400" fill="#f5f7fa"/>
  <rect x="30" y="20" width="120" height="30" rx="5" fill="#FF6B35"/>
  <rect x="170" y="20" width="80" height="30" rx="5" fill="#e0e0e0"/>
  <rect x="270" y="20" width="80" height="30" rx="5" fill="#e0e0e0"/>
  <rect x="370" y="20" width="80" height="30" rx="5" fill="#e0e0e0"/>
  <rect x="470" y="20" width="80" height="30" rx="5" fill="#e0e0e0"/>
  <rect x="30" y="70" width="540" height="300" rx="10" fill="white" stroke="#e0e0e0"/>
  <text x="300" y="100" text-anchor="middle" font-family="Arial" font-size="18" font-weight="bold" fill="#333">New Requisition</text>
  <rect x="50" y="120" width="500" height="40" rx="5" fill="#f5f7fa" stroke="#e0e0e0"/>
  <text x="60" y="145" font-family="Arial" font-size="14" fill="#999">Employee Name</text>
  <rect x="50" y="170" width="240" height="40" rx="5" fill="#f5f7fa" stroke="#e0e0e0"/>
  <text x="60" y="195" font-family="Arial" font-size="14" fill="#999">Department</text>
  <rect x="310" y="170" width="240" height="40" rx="5" fill="#f5f7fa" stroke="#e0e0e0"/>
  <text x="320" y="195" font-family="Arial" font-size="14" fill="#999">Destination</text>
  <rect x="50" y="220" width="240" height="40" rx="5" fill="#f5f7fa" stroke="#e0e0e0"/>
  <text x="60" y="245" font-family="Arial" font-size="14" fill="#999">Travel Date</text>
  <rect x="310" y="220" width="240" height="40" rx="5" fill="#f5f7fa" stroke="#e0e0e0"/>
  <text x="320" y="245" font-family="Arial" font-size="14" fill="#999">Return Date</text>
  <rect x="50" y="270" width="500" height="60" rx="5" fill="#f5f7fa" stroke="#e0e0e0"/>
  <text x="60" y="295" font-family="Arial" font-size="14" fill="#999">Purpose of Travel</text>
  <rect x="50" y="340" width="200" height="40" rx="20" fill="#FF6B35"/>
  <text x="150" y="365" text-anchor="middle" font-family="Arial" font-size="14" font-weight="bold" fill="white">Submit Request</text>
  <circle cx="500" cy="360" r="304CAF50" opacity="0.2"/>
  " fill="#<text x="500" y="370" text-anchor="middle" font-family="Arial" font-size="24" fill="#4CAF50">✓</text>
</svg>
